# xmcd
#
# Track frame offsets: 
#        150
#        20463
#        43834
#        64484
#        88766
#        110497
#        132168
#        155504
#        173093
#        193731
#
# Disc length: 2889 seconds
#
# Revision: 2
# Processed by: cddbd v1.5.2PL0 Copyright (c) Steve Scherf et al.
# Submitted via: ExactAudioCopy v0.99pb5
#
DISCID=8a0b470a
DTITLE=Duy Manh - Tinh Em La Dai Duong
DYEAR=1900
DGENRE=
TTITLE0=Xin Duoc Hoai Mong
TTITLE1=Hay Ve Day Ben Anh
TTITLE2=Ta Mang On Em
TTITLE3=Kiep Do Den
TTITLE4=Tinh Em La Dai Duong
TTITLE5=Ta Dau Co Say
TTITLE6=Van Mai Yeu Em
TTITLE7=Loi Cua Trai Tim
TTITLE8=Ngay Mai Em Di ft. Hien Thuc
TTITLE9=Con Se Khong Quen
EXTD=
EXTT0=
EXTT1=
EXTT2=
EXTT3=
EXTT4=
EXTT5=
EXTT6=
EXTT7=
EXTT8=
EXTT9=
PLAYORDER=
